# xmcd CD database file
#
# Track frame offsets:
#	150
#	16371
#	34725
#	55806
#	75036
#	90895
#	104160
#	123485
#	136684
#	157285
#	169461
#	182515
#
# Disc length: 2747 seconds
#
# Revision: 0
# Processed by: cddbd v1.5.1PL2 Copyright (c) Steve Scherf et al.
# Submitted via: CDex 1.51
#
DISCID=910ab90c
DTITLE=Universe Narrows - Univers Narrows
DYEAR=2006
DGENRE=Country
TTITLE0=Superhigh
TTITLE1=Tulipmania
TTITLE2=In My Mind
TTITLE3=Guy
TTITLE4=Lightning Bugs
TTITLE5=Pearl
TTITLE6=Bottomless Lakes
TTITLE7=Makin' Lists
TTITLE8=Uranium, Rubies and Gold
TTITLE9=No Such Thing As Late
TTITLE10=Pining Yellow Moon
TTITLE11=Trouble Free Zone
EXTD=YEAR: 2006
EXTT0=
EXTT1=
EXTT2=
EXTT3=
EXTT4=
EXTT5=
EXTT6=
EXTT7=
EXTT8=
EXTT9=
EXTT10=
EXTT11=
PLAYORDER=
